<?xml version="1.0" encoding="utf-8"?>
<!-- Generator: Adobe Illustrator 17.0.0, SVG Export Plug-In . SVG Version: 6.00 Build 0)  -->
<!DOCTYPE svg PUBLIC "-//W3C//DTD SVG 1.1//EN" "http://www.w3.org/Graphics/SVG/1.1/DTD/svg11.dtd">
<svg version="1.1" id="图形" xmlns="http://www.w3.org/2000/svg" xmlns:xlink="http://www.w3.org/1999/xlink" x="0px" y="0px"
	 width="1000.636px" height="1000.678px" viewBox="0 0 1000.636 1000.678" enable-background="new 0 0 1000.636 1000.678"
	 xml:space="preserve">
<g>
	<path fill="#FFFFFF" d="M525.751,556.083c-38.389,0-76.778-0.001-115.168,0.001c-3.206,0-3.634,0.65-1.94,3.392
		c6.265,10.14,13.767,19.262,22.678,27.202c9.017,8.036,19.046,14.541,30.071,19.436c15.192,6.746,31.13,10.177,47.777,10.17
		c42.67-0.018,85.34-0.004,128.011-0.092c8.859-0.018,17.577-1.276,26.225-3.361c13.384-3.227,25.763-8.665,37.166-16.263
		c11.894-7.925,21.994-17.762,30.356-29.403c6.218-8.656,11.218-17.965,14.822-27.94c4.093-11.328,6.56-23.043,6.856-35.165
		c0.491-20.171-1.554-40.069-6.143-59.712c-2.843-12.169-6.613-24.034-11.266-35.641c-6.411-15.991-14.428-31.13-24.098-45.35
		c-14.494-21.315-31.842-40.002-52.244-55.844c-10.713-8.319-21.953-15.812-33.862-22.257
		c-10.535-5.702-21.337-10.912-32.777-14.584c-9.534-3.061-19.025-6.45-28.779-8.58c-11.07-2.417-22.37-3.96-33.644-5.223
		c-15.527-1.74-31.092-1.239-46.641,0.408c-12.027,1.274-23.887,3.413-35.564,6.437c-10.785,2.792-21.323,6.391-31.638,10.675
		c-11.215,4.658-22.033,10.073-32.417,16.326c-19.762,11.901-37.481,26.348-53.181,43.263c-9.515,10.252-18.278,21.12-25.69,32.973
		c-5.119,8.185-9.794,16.668-14.299,25.213c-6.354,12.051-11.271,24.743-14.912,37.851c-2.603,9.372-4.593,18.928-6.539,28.466
		c-3.072,15.055-3.811,30.326-3.549,45.654c0.201,11.731,1.064,23.408,3.325,34.942c1.483,7.567,2.724,15.208,4.735,22.637
		c2.23,8.239,4.935,16.378,7.95,24.366c2.764,7.322,5.865,14.566,9.456,21.514c4.338,8.392,9.076,16.608,14.13,24.59
		c8.007,12.646,17.384,24.266,27.778,35.053c8.676,9.004,17.905,17.374,27.816,25.016c9.681,7.464,19.762,14.342,30.553,20.032
		c9.022,4.757,18.369,8.92,27.7,13.059c10.532,4.671,21.58,7.87,32.754,10.609c19.383,4.752,39.065,6.796,59.014,6.772
		c58.812-0.07,117.624-0.025,176.436-0.029c0.982,0,1.963-0.066,2.945-0.079c2.232-0.028,2.86,0.932,1.757,2.885
		c-2.033,3.601-4.159,7.15-6.238,10.725c-4.294,7.383-8.589,14.766-12.873,22.155c-5.622,9.697-11.235,19.4-16.845,29.104
		c-0.315,0.545-0.415,1.334-0.867,1.655c-1.139,0.809-2.42,2.006-3.649,2.013c-13.75,0.071-27.501-0.096-41.252-0.117
		c-36.634-0.057-73.27,0.037-109.903-0.166c-13.69-0.076-27.272-1.683-40.819-3.815c-13.335-2.099-26.494-4.953-39.337-8.935
		c-11.484-3.56-22.801-7.809-33.876-12.498c-10.173-4.307-20.122-9.25-29.806-14.575c-8.642-4.752-16.95-10.169-25.113-15.722
		c-11.543-7.852-22.36-16.664-32.678-26.084c-13.714-12.519-26.376-26.025-37.37-40.981c-7.17-9.755-14.081-19.75-20.389-30.076
		c-5.385-8.814-10.022-18.122-14.475-27.457c-3.945-8.271-7.426-16.787-10.65-25.368c-2.655-7.067-4.89-14.32-6.845-21.615
		c-2.557-9.537-4.805-19.164-6.89-28.816c-1.124-5.2-1.767-10.518-2.392-15.81c-2.823-23.912-3.49-47.856-0.711-71.824
		c0.856-7.385,1.584-14.798,2.838-22.119c1.23-7.177,2.847-14.306,4.675-21.357c2.091-8.066,4.297-16.127,7.012-23.998
		c3.037-8.803,6.448-17.499,10.166-26.037c3.35-7.692,7.026-15.281,11.122-22.6c4.99-8.917,10.34-17.655,15.951-26.196
		c7.513-11.436,16.02-22.144,25.137-32.359c11.47-12.851,23.856-24.726,37.266-35.553c9.887-7.983,20.143-15.447,30.959-22.092
		c7.27-4.467,14.695-8.735,22.312-12.573c9.061-4.566,18.273-8.895,27.663-12.731c8.15-3.329,16.559-6.098,25.003-8.616
		c8.918-2.659,17.935-5.11,27.05-6.953c9.815-1.985,19.801-3.113,29.699-4.699c17.683-2.834,35.494-1.745,53.246-1.473
		c8.188,0.125,16.407,1.538,24.514,2.932c11.737,2.018,23.528,4.007,35.033,7.013c11.217,2.931,22.237,6.773,33.095,10.871
		c9.42,3.556,18.624,7.761,27.689,12.164c12.866,6.249,25.08,13.676,36.848,21.817c16.363,11.319,31.747,23.853,45.419,38.309
		c8.709,9.209,16.906,18.924,24.993,28.693c8.415,10.166,15.624,21.238,22.154,32.681c5.233,9.171,10.046,18.615,14.481,28.199
		c4.025,8.697,7.444,17.687,10.831,26.661c1.925,5.1,3.338,10.402,4.823,15.657c1.695,5.997,3.389,12.004,4.778,18.076
		c3.541,15.476,5.916,31.134,6.767,47.004c0.191,3.573,0.315,7.153,0.607,10.718c0.158,1.933,0.959,3.86,0.864,5.759
		c-0.762,15.255-1.566,30.529-5.262,45.429c-1.886,7.605-3.846,15.238-6.496,22.599c-4.612,12.812-10.692,24.961-18.071,36.446
		c-9.502,14.787-20.856,27.966-34.048,39.563c-8.867,7.795-18.33,14.806-28.664,20.525c-6.974,3.86-14.053,7.603-21.352,10.784
		c-6.333,2.76-12.975,4.882-19.605,6.87c-5.961,1.788-12.064,3.137-18.153,4.455c-11.432,2.473-23.046,3.273-34.714,3.28
		c-41.969,0.027-83.937-0.02-125.906,0.022c-16.73,0.017-33.184-2.079-49.301-6.475c-10.065-2.745-19.819-6.403-29.315-10.822
		c-14.711-6.846-28.256-15.469-40.692-25.825c-14.818-12.34-27.337-26.714-37.698-43.008c-5.735-9.019-10.719-18.424-14.776-28.27
		c-2.741-6.651-4.792-13.597-6.961-20.471c-3.798-12.039-5.526-24.46-6.559-37.003c-1.264-15.346-0.431-30.612,2.449-45.687
		c1.758-9.202,4.028-18.374,6.957-27.267c4.791-14.545,11.622-28.192,20.016-41.05c9.652-14.785,21.118-27.972,34.491-39.47
		c9.965-8.567,20.599-16.255,32.343-22.211c7.729-3.92,15.558-7.74,23.632-10.85c7.294-2.809,14.943-4.735,22.505-6.797
		c13.147-3.585,26.639-4.925,40.197-4.934c9.026-0.005,18.078,0.746,27.072,1.637c11.69,1.158,23.057,4.074,34.166,7.822
		c12.566,4.239,24.54,9.803,35.956,16.615c17.758,10.595,33.285,23.791,46.648,39.519c8.692,10.231,16.101,21.346,22.396,33.236
		c6.356,12.006,11.353,24.519,14.923,37.6c4.761,17.446,7.118,35.224,6.137,53.303c-0.784,14.452-6.986,26.621-17.429,36.498
		c-11.383,10.767-25.059,15.674-40.76,15.611c-36.701-0.147-73.403-0.047-110.104-0.047
		C525.751,556.106,525.751,556.095,525.751,556.083z M509.12,488.075c0,0.003,0,0.007,0,0.01c37.686,0,75.372-0.002,113.058,0.003
		c3.038,0,3.636-0.673,3.033-3.664c-0.872-4.325-1.782-8.642-2.69-12.959c-2.319-11.022-6.75-21.229-12.398-30.885
		c-8.464-14.472-19.54-26.608-33.25-36.341c-16.282-11.559-34.275-18.5-54.112-20.908c-19.801-2.404-38.836,0.287-57.32,7.624
		c-13.661,5.422-25.765,13.229-36.467,23.26c-11.716,10.982-20.849,23.81-27.273,38.523c-4.511,10.332-7.544,21.095-8.807,32.324
		c-0.275,2.445,0.289,3.015,2.747,3.015C433.467,488.075,471.294,488.075,509.12,488.075z"/>
</g>
</svg>
