<?xml version="1.0" encoding="utf-8"?>
<!-- Generator: Adobe Illustrator 17.0.0, SVG Export Plug-In . SVG Version: 6.00 Build 0)  -->
<!DOCTYPE svg PUBLIC "-//W3C//DTD SVG 1.1//EN" "http://www.w3.org/Graphics/SVG/1.1/DTD/svg11.dtd">
<svg version="1.1" id="图形" xmlns="http://www.w3.org/2000/svg" xmlns:xlink="http://www.w3.org/1999/xlink" x="0px" y="0px"
	 width="1000.636px" height="1000.678px" viewBox="15.167 -16.333 1000.636 1000.678"
	 enable-background="new 15.167 -16.333 1000.636 1000.678" xml:space="preserve">
<g>
	<path fill-rule="evenodd" clip-rule="evenodd" fill="#FFFFFF" d="M641.96,660.166c51.848-47.058,75.221-101.323,76.083-176.208
		c1.245-114.589-87.553-201.376-202.885-201.376c-115.237,0-202.79,86.715-202.837,201.376
		c0.047,69.855,21.169,126.132,76.105,176.208l25.337-50.385c-29.983-26.272-50.674-82.908-50.721-125.823
		c0.096-79.363,72.415-150.871,152.163-151.038c79.77,0.169,152.018,71.675,152.187,151.038
		c-0.122,45.549-17.459,99.551-50.744,125.823L641.96,660.166L641.96,660.166 M489.822,509.128L363.045,886.757h302.551
		L540.518,509.128H489.822L489.822,509.128 M863.028,409.528c-9.15-48.111-27.311-93.037-53.883-132.335
		c5.939-9.63,10.338-20.31,10.338-32.371c0-34.727-28.403-62.937-63.429-62.937c-11.858,0-22.346,4.12-31.806,9.739
		c-37.862-25.695-82.692-44.252-134.181-53.38c-3.137-31.827-29.288-56.987-62.191-56.987c-31.539,0-56.541,23.244-61.38,53.209
		c-62.839,6.849-116.601,27.011-160.664,56.976c-9.457-5.511-19.853-9.557-31.586-9.557c-34.988,0-63.388,28.156-63.388,62.937
		c0,12.018,4.334,22.645,10.177,32.181c-26.509,39.346-44.687,84.368-53.836,132.527c-32.257,2.994-57.784,29.073-57.784,61.834
		c0,31.609,23.874,56.635,54.455,61.091c7.352,49.81,25.889,98.735,51.943,141.125c-3.184,7.519-4.957,15.711-4.957,24.306
		c0,34.722,28.352,62.862,63.389,62.862c5.746,0,10.92-1.796,16.237-3.209c15.038,11.4,30.532,21.506,47.2,28.474l25.362-50.338
		c-10.729-3.162-20.668-7.975-30.319-13.315c3.162-7.519,4.959-15.759,4.959-24.474c0-34.724-28.354-62.911-63.39-62.911
		c-7.472,0-14.367,1.867-20.977,4.192c-21.312-37.622-34.89-80.536-39.993-120.385c13.723-11.567,22.895-28.137,22.895-47.415
		c0-17.841-7.614-33.741-19.566-45.213c8.144-42.221,25.122-83.481,50.603-119.81c2.395,0.265,4.527,1.389,7.04,1.389
		c35.036,0,63.389-28.138,63.389-62.91c0-2.9-1.268-5.34-1.676-8.091c39.157-27.835,87.051-47.162,143.735-52.909
		c11.662,13.944,28.473,23.255,48.088,23.255c18.176,0,34.246-7.759,45.859-19.895c46.699,8.037,87.075,25.288,120.696,49.282
		c-0.382,2.846-1.676,5.415-1.676,8.401c0,34.776,28.359,62.914,63.385,62.914c2.568,0,4.773-1.124,7.256-1.438
		c25.384,36.329,42.347,77.638,50.437,119.81c-11.943,11.472-19.638,27.372-19.638,45.261c0,18.917,8.839,35.347,22.131,46.842
		c-7.042,40.592-25.674,81.853-50.32,118.733c-3.328-0.551-6.367-1.963-9.813-1.963c-35.038,0-63.39,28.21-63.39,62.934
		c0,6.152,1.893,11.711,3.498,17.29c-9.484,7.736-19.159,14.632-28.856,20.475l25.311,50.338
		c15.256-8.406,29.501-18.417,43.296-29.194c6.368,2.134,12.928,4.001,20.098,4.001c35.038,0,63.429-28.138,63.429-62.862
		c0-9.483-2.44-18.251-6.175-26.294c26.968-41.552,45.857-88.822,53.262-139.16c30.554-4.505,54.365-29.529,54.365-61.093
		C920.882,438.553,895.347,412.473,863.028,409.528L863.028,409.528 M863.028,409.528L863.028,409.528z"/>
</g>
</svg>
