<?xml version="1.0" encoding="utf-8"?>
<!-- Generator: Adobe Illustrator 17.0.0, SVG Export Plug-In . SVG Version: 6.00 Build 0)  -->
<!DOCTYPE svg PUBLIC "-//W3C//DTD SVG 1.1//EN" "http://www.w3.org/Graphics/SVG/1.1/DTD/svg11.dtd">
<svg version="1.1" id="图形" xmlns="http://www.w3.org/2000/svg" xmlns:xlink="http://www.w3.org/1999/xlink" x="0px" y="0px"
	 width="1000.636px" height="1000.678px" viewBox="15.167 -16.333 1000.636 1000.678"
	 enable-background="new 15.167 -16.333 1000.636 1000.678" xml:space="preserve">
<path fill-rule="evenodd" clip-rule="evenodd" fill="#FFFFFF" d="M820.352,128.58H739.92c0-17.695-14.478-32.172-32.172-32.172
	H321.673c-17.695,0-32.172,14.478-32.172,32.172h-80.432c-35.39,0-64.346,28.956-64.346,64.346l0,0
	c0,186.602,110.996,318.511,257.382,347.466l0,0c1.609,0,3.218,0,4.826,1.609l0,0c4.826,1.608,9.652,1.608,14.478,1.608
	c35.39,25.739,59.52,85.259,59.52,156.039c0,14.478-1.609,27.347-3.217,40.216c-32.173,0-59.52,0-73.998,0
	c-33.781,0-33.781,32.172-33.781,32.172v32.173H337.76c-17.696,0-32.173,14.478-32.173,32.173c0,17.695,14.478,32.173,32.173,32.173
	h32.172h289.555h32.172c17.696,0,32.173-14.478,32.173-32.173c0-17.695-14.478-32.173-32.173-32.173h-32.172v-32.173
	c0,0,0-32.172-35.391-32.172c-12.869,0-41.824,0-73.997,0c-1.609-12.87-3.218-25.739-3.218-40.216
	c0-70.78,24.13-130.3,59.52-156.039c4.826,0,9.652-1.608,14.478-1.608l0,0c1.609,0,3.217,0,4.826-1.609l0,0
	c146.387-28.956,257.383-160.864,257.383-347.466l0,0C884.697,157.535,855.742,128.58,820.352,128.58L820.352,128.58z
	 M209.068,192.926h80.432v16.087c0,99.735,22.521,183.385,57.911,244.513C263.762,408.483,209.068,315.183,209.068,192.926
	L209.068,192.926z M579.056,402.049H450.364v-32.173c17.696,0,32.173-14.478,32.173-32.173v-96.518
	c0-9.652-6.435-16.087-16.087-16.087v-32.173l80.432-16.087v160.864c0,17.695,14.478,32.173,32.173,32.173l0,0V402.049
	L579.056,402.049z M682.009,453.525c35.391-61.128,57.911-144.778,57.911-244.513v-16.087h80.433
	C820.352,315.183,765.658,408.483,682.009,453.525L682.009,453.525z"/>
</svg>
