<?xml version="1.0" encoding="utf-8"?>
<!-- Generator: Adobe Illustrator 17.0.0, SVG Export Plug-In . SVG Version: 6.00 Build 0)  -->
<!DOCTYPE svg PUBLIC "-//W3C//DTD SVG 1.1//EN" "http://www.w3.org/Graphics/SVG/1.1/DTD/svg11.dtd">
<svg version="1.1" id="图形" xmlns="http://www.w3.org/2000/svg" xmlns:xlink="http://www.w3.org/1999/xlink" x="0px" y="0px"
	 width="1000.636px" height="1000.678px" viewBox="15.167 -16.333 1000.636 1000.678"
	 enable-background="new 15.167 -16.333 1000.636 1000.678" xml:space="preserve">
<g>
	<path fill-rule="evenodd" clip-rule="evenodd" fill="#FFFFFF" d="M598.029,651.231c2.243-15.082,14.623-51.98,21.815-76.21
		c-2.534,0.049-5.116-0.168-7.602-0.868c-5.357-1.424-10.015-4.368-13.515-8.399c-5.38,0.845-10.837,0.072-15.734-2.22
		c-5.02-2.317-9.049-6.032-11.8-10.619c-5.431-0.097-10.62-1.787-15.083-4.924c-1.881-1.305-3.427-2.946-4.875-4.61
		c1.787,28.284,2.994,53.742,3.378,61.488c0.99,19.235-10.499,64.022-6.54,82.629c3.98,18.629,33.253,70.247,34.242,78.96
		c0.99,8.712-8.155,12.501-12.837,17.351c-4.681,4.876-3.162,12.284,0.579,16.628c3.764,4.368,14.069,8.326,17.834,16.651
		c3.764,8.326-1.978,40.47-2.39,48.746c-0.409,8.278,10.499,5.962,14.263,0c3.764-5.937,20.415-33.688,21.405-50.533
		c0.991-16.845-6.635-39.408-8.325-49.351c-1.691-9.943-17.205-98.676-14.817-114.724L598.029,651.231L598.029,651.231z"/>
	<path fill-rule="evenodd" clip-rule="evenodd" fill="#FFFFFF" d="M485.889,358.123c-12.355-3.523-24.639-7.047-35.304-10.088
		c-39.432-11.198-186.37-40.155-199.74-42.812c-13.371-2.657-21.646-8.133-26.763-11.005c-5.092-2.87-40.614-43.098-56.469-44.282
		c-15.854-1.184-22.974,13.079-16.651,20.801c6.323,7.723,39.625,39.818,53.502,44.596c13.875,4.753,23.457,7.771,38.056,12.476
		c10.449,3.378,154.806,57.265,238.69,91.605c-0.12-0.652-0.409-1.229-0.482-1.907c-0.483-5.55,0.725-10.932,3.306-15.59
		c-2.558-4.632-3.764-9.991-3.306-15.492c0.508-5.55,2.631-10.642,5.985-14.793c-1.472-4.295-1.616-8.93-0.82-13.515
		L485.889,358.123L485.889,358.123z"/>
	<path fill-rule="evenodd" clip-rule="evenodd" fill="#FFFFFF" d="M873.881,101.311c-7.723-3.572-56.783,12.477-67.184,24.374
		c-10.4,11.896-72.998,143.176-82.628,161.708c0.602-4.465-12.185-18.725-8.253-26.087c3.933-7.359,23.117-19.376,24.301-24.13
		c1.184-4.755-13.079-16.047-11.294-19.33c1.787-3.259,5.042-6.226,2.968-8.904c-2.074-2.678-16.627-2.389-20.802-5.357
		c-4.151-2.968-13.466-10.62-19.619-15.444c-6.13-4.826-36.849-0.603-48.746,9.508c-11.897,10.11-15.855,25.506-17.231,29.729
		c-1.375,4.223-6.829,4.465-7.722,9.508c-0.894,5.043,12.79,21.406,17.23,23.191c4.465,1.788,24.735,13.876,29.442,16.628
		c4.706,2.775-0.29,6.249-3.862,4.151c-3.572-2.075-179.879-115.254-192.017-123.049c-12.138-7.794-78.188-4.465-86.804,0
		c-8.615,4.465,27.945,26.738,36.849,24.374c8.93-2.39,29.442-12.185,35.692-8.326c6.226,3.862,166.462,133.474,172.399,142.691
		c5.961,9.218,10.305,45.585,5.357,53.502c-1.206,1.955-3.306,3.017-5.865,3.595c-32.29-28.186-77.778-67.737-82.29-70.875
		c-6.975-4.924-16.674-3.185-21.573,3.764c-3.524,5.02-3.524,11.317-0.748,16.312c-5.695,0.12-11.172,3.281-13.732,8.783
		c-2.581,5.528-1.496,11.753,2.1,16.218c-5.622,1.088-10.449,5.164-12.017,11.052c-1.57,5.913,0.579,11.8,4.849,15.589
		c-5.309,2.075-9.364,6.927-9.917,12.984c-0.508,6.058,2.631,11.535,7.529,14.503c-4.899,2.968-8.037,8.448-7.529,14.479
		c0.554,6.081,4.61,10.907,9.917,12.984c-4.295,3.788-6.443,9.7-4.875,15.565c1.57,5.937,6.395,9.967,12.043,11.076
		c-3.596,4.465-4.682,10.691-2.1,16.143c2.581,5.549,8.036,8.712,13.732,8.856c-2.776,5.02-2.704,11.317,0.747,16.29
		c3.498,4.971,9.388,7.143,15.034,6.275c-1.808,5.406-0.7,11.583,3.595,15.878c4.296,4.319,10.499,5.406,15.904,3.572
		c-0.869,5.622,1.304,11.56,6.296,15.058c5.02,3.499,11.269,3.499,16.291,0.796c0.145,5.671,3.306,11.151,8.808,13.708
		c5.528,2.581,11.728,1.472,16.192-2.075c1.109,5.598,5.14,10.425,11.076,11.995c5.865,1.593,11.777-0.554,15.516-4.875
		c2.074,5.358,6.926,9.388,13.03,9.895c6.058,0.53,11.511-2.607,14.479-7.481c2.968,4.898,8.422,8.011,14.528,7.481
		c6.057-0.531,10.858-4.561,12.91-9.895c3.813,4.319,9.7,6.443,15.614,4.875c5.887-1.592,9.894-6.418,11.028-11.995
		c4.465,3.548,10.691,4.633,16.24,2.075c5.479-2.582,8.64-8.037,8.761-13.755c5.02,2.752,11.295,2.752,16.312-0.773
		c6.975-4.898,8.688-14.576,3.813-21.573c-3.259-4.633-45.706-53.356-73.988-85.765c31.975-25.846,65.469-51.98,68.415-59.533
		c5.744-14.671-2.727-36.849-3.572-48.143c-0.845-11.294,72.855-177.877,76.691-187.264c3.861-9.41,29.729,1.497,41.627-4.151
		c11.801-5.72,14.769-26.811,7.047-30.383L873.881,101.311L873.881,101.311z"/>
</g>
</svg>
